<?xml version="1.0" standalone="no"?>
<!DOCTYPE svg PUBLIC "-//W3C//DTD SVG 20010904//EN"
 "http://www.w3.org/TR/2001/REC-SVG-20010904/DTD/svg10.dtd">
<svg version="1.0" xmlns="http://www.w3.org/2000/svg"
 width="600.000000pt" height="600.000000pt" viewBox="0 0 600.000000 600.000000"
 preserveAspectRatio="xMidYMid meet">

<g transform="translate(0.000000,600.000000) scale(0.100000,-0.100000)"
fill="#000000" stroke="none">
<path d="M3380 4305 c0 -26 8 -60 18 -78 l17 -32 3 69 c2 49 -1 72 -10 77 -24
15 -28 10 -28 -36z"/>
<path d="M3618 4123 c-26 -58 -27 -151 -3 -210 9 -24 21 -43 26 -43 5 0 9 68
9 150 0 83 -3 150 -6 150 -3 0 -14 -21 -26 -47z"/>
<path d="M3310 4085 c0 -33 26 -95 39 -95 6 0 11 22 11 50 0 38 -4 52 -19 60
-28 14 -31 13 -31 -15z"/>
<path d="M2252 4003 c-12 -10 -78 -153 -148 -318 -152 -358 -153 -363 -101
-505 53 -147 54 -163 15 -282 -31 -96 -33 -112 -33 -238 0 -116 3 -145 24
-205 43 -127 90 -204 176 -291 67 -68 98 -90 176 -128 246 -120 552 -133 821
-34 32 11 55 24 53 28 -3 4 3 7 13 6 11 0 18 7 20 22 2 12 8 22 13 22 6 0 8
-4 5 -8 -2 -4 4 -8 14 -9 11 -1 22 3 26 8 3 5 0 8 -8 7 -7 -2 -14 7 -16 20 -2
12 2 22 8 22 8 0 11 15 8 45 -3 24 -1 42 4 39 4 -3 8 -1 8 4 0 10 80 49 92 44
5 -1 8 3 8 10 0 6 3 8 7 5 3 -4 12 -2 20 4 10 9 13 8 13 -4 0 -9 -8 -18 -17
-20 -16 -4 -16 -5 0 -6 17 -1 26 14 29 44 1 13 34 36 56 39 9 2 17 7 17 12 0
5 41 50 91 99 50 50 101 104 115 121 13 16 20 24 15 17 -5 -8 -4 -13 3 -13 11
0 15 13 12 39 -2 8 3 10 11 5 7 -4 10 -4 6 1 -4 4 2 24 14 44 16 26 -7 8 -83
-64 -58 -55 -135 -117 -170 -138 l-64 -37 -31 32 c-44 45 -53 52 -99 70 -22 8
-45 25 -51 37 -10 19 -12 15 -23 -34 -40 -179 -207 -340 -389 -376 -138 -26
-338 7 -475 78 -239 126 -351 434 -243 668 28 61 67 94 188 157 128 66 124 60
278 498 45 129 83 248 84 264 1 35 -25 56 -51 40 -10 -6 -84 -161 -164 -345
-144 -328 -147 -334 -177 -337 -64 -7 -62 8 64 374 63 186 114 350 112 364 -4
35 -51 41 -71 8 -8 -13 -74 -160 -147 -328 -73 -168 -140 -313 -149 -323 -18
-21 -50 -19 -65 6 -9 14 12 86 103 360 63 188 116 347 119 353 3 12 -24 44
-38 44 -4 0 -17 -8 -28 -17z"/>
<path d="M2967 3993 c9 -26 43 -73 53 -73 4 0 7 19 6 43 -1 40 -3 42 -33 45
-28 3 -32 1 -26 -15z"/>
<path d="M3266 3823 c12 -61 36 -111 63 -137 l28 -27 -5 88 c-2 49 -9 91 -16
95 -6 4 -26 8 -44 8 -30 0 -32 -2 -26 -27z"/>
<path d="M3856 3769 c-27 -66 -30 -120 -12 -183 28 -94 41 -68 44 87 1 79 -1
137 -7 137 -5 0 -16 -18 -25 -41z"/>
<path d="M2994 3755 c-9 -35 1 -124 15 -138 8 -8 11 9 11 70 0 82 -14 117 -26
68z"/>
<path d="M3190 3568 c-24 -54 -26 -152 -4 -208 9 -22 20 -40 25 -40 5 0 9 65
9 145 0 80 -2 145 -5 145 -4 0 -15 -19 -25 -42z"/>
<path d="M2810 3569 c0 -30 24 -99 34 -99 4 0 6 26 6 59 0 50 -3 59 -20 64
-17 4 -20 0 -20 -24z"/>
<path d="M3990 3378 c-16 -29 -24 -62 -27 -112 -5 -88 4 -107 41 -82 25 16 26
19 26 126 0 61 -4 110 -8 110 -5 0 -19 -19 -32 -42z"/>
<path d="M3427 3308 c-11 -79 23 -177 81 -232 28 -26 33 -23 19 14 -3 8 -22
67 -43 130 -21 63 -41 119 -44 123 -4 4 -10 -11 -13 -35z"/>
<path d="M2712 3253 c-18 -9 -32 -18 -32 -22 0 -12 60 -42 70 -36 12 7 13 62
2 69 -4 2 -22 -2 -40 -11z"/>
<path d="M2485 2996 c-32 -32 -28 -51 11 -51 22 0 30 5 32 22 2 12 -1 30 -6
39 -9 16 -12 15 -37 -10z"/>
<path d="M2830 2988 c0 -6 -3 -9 -6 -5 -8 7 -49 -14 -83 -43 -19 -16 -21 -23
-11 -35 16 -19 96 -49 109 -40 14 8 15 135 1 135 -5 0 -10 -5 -10 -12z"/>
<path d="M2566 2669 c-30 -36 -26 -49 15 -49 27 0 29 2 29 40 0 48 -10 50 -44
9z"/>
<path d="M2893 2626 c-22 -25 -44 -61 -50 -80 l-11 -36 53 0 53 0 4 76 c2 42
0 78 -4 80 -3 2 -24 -16 -45 -40z"/>
<path d="M3752 2538 c-7 -7 -12 -15 -12 -19 0 -4 -24 -31 -52 -60 -29 -29 -41
-43 -27 -31 14 12 29 19 32 15 4 -3 7 1 7 11 0 9 8 20 18 23 23 9 43 29 35 37
-3 3 0 12 7 21 15 18 9 20 -8 3z"/>
<path d="M3480 2446 c0 -2 6 -9 14 -15 11 -9 16 -9 22 0 4 8 3 9 -4 5 -7 -4
-12 -2 -12 3 0 6 -4 11 -10 11 -5 0 -10 -2 -10 -4z"/>
<path d="M3672 2409 c-19 -30 -33 -69 -24 -69 4 0 20 19 36 42 17 23 25 38 19
35 -6 -4 -13 -3 -15 3 -2 6 -9 1 -16 -11z m8 -19 c-6 -11 -13 -20 -16 -20 -2
0 0 9 6 20 6 11 13 20 16 20 2 0 0 -9 -6 -20z"/>
<path d="M3613 2385 c-7 -8 -13 -16 -13 -19 0 -6 23 -2 38 7 6 5 12 12 12 18
0 14 -23 10 -37 -6z"/>
<path d="M3560 2270 c0 -5 5 -10 10 -10 6 0 10 5 10 10 0 6 -4 10 -10 10 -5 0
-10 -4 -10 -10z"/>
<path d="M3526 2223 c-3 -7 -2 -13 3 -13 5 0 14 6 20 13 8 10 7 14 -4 14 -8 0
-16 -6 -19 -14z"/>
<path d="M3385 2220 c5 -9 2 -10 -13 -6 -11 4 -23 3 -25 -1 -3 -5 5 -10 18
-11 27 -2 42 13 24 24 -8 5 -9 3 -4 -6z"/>
<path d="M3485 2189 c-4 -6 -5 -12 -2 -15 2 -3 7 2 10 11 7 17 1 20 -8 4z"/>
<path d="M3400 2145 c0 -8 5 -15 11 -15 5 0 8 4 5 9 -4 5 0 12 6 14 8 3 6 6
-4 6 -10 1 -18 -6 -18 -14z"/>
<path d="M3360 2102 c0 -10 4 -11 13 -5 6 6 19 13 27 16 8 3 3 5 -12 4 -17 -1
-28 -7 -28 -15z"/>
</g>
</svg>
